<svg version="1.1" viewBox="0 0 152 200" xmlns="http://www.w3.org/2000/svg">
  <path style="fill:#ffffff;stroke-width:1;stroke:black"
		d="m 137.91009,105.46686 q 6.28706,5.38895 10.00796,12.57412 3.72089,7.18517 3.72089,19.1174 0,13.47263 -5.38895,25.14824 -5.2606,11.67561 -16.29551,20.0159 -10.7781,8.08338 -25.40496,12.44577 -14.498496,4.23412 -35.28455,4.23412 -23.737295,0 -40.801959,-3.72089 -16.936306,-3.72089 -27.58604894,-8.33999 V 144.98534 H 5.8809384 q 11.0348176,6.67203 26.3034626,11.54725 15.397003,4.87572 28.099481,4.87572 7.441786,0 16.167152,-1.15472 8.724869,-1.28309 14.755213,-5.38896 4.74736,-3.20766 7.570144,-7.6984 2.822779,-4.6191 2.822779,-13.21591 0,-8.33999 -3.849246,-12.83083 -3.849251,-4.61911 -10.136311,-6.54368 -6.28706,-2.05294 -15.140287,-2.18119 -8.853227,-0.25661 -16.422873,-0.25661 H 45.529068 V 78.008682 h 10.906459 q 10.007953,0 17.706454,-0.641532 7.698403,-0.641542 13.087553,-2.951042 5.645568,-2.437809 8.468252,-6.415418 2.822784,-4.105868 2.822784,-11.93233 0,-5.773826 -2.951043,-9.238102 -2.951042,-3.592634 -7.441785,-5.645568 -5.003976,-2.309551 -11.803971,-3.079401 -6.800294,-0.76984 -11.675613,-0.76984 -12.060688,0 -26.175105,4.234126 -14.113422,4.105868 -27.329333,11.93233 H 6.3963609 V 12.058155 Q 16.917746,7.8240285 35.009275,3.9747777 q 18.091528,-3.97750944 36.695494,-3.97750944 18.091529,0 31.691521,3.20765924 13.60098,3.0794007 22.45371,8.3399935 10.52139,6.28706 15.65372,15.268645 5.13234,8.981486 5.13234,21.042771 0,15.910435 -9.8797,28.484555 -9.87969,12.445762 -26.04674,15.910436 v 1.796317 q 6.54367,0.898149 13.8567,3.592634 7.31353,2.694431 13.34427,7.826761 z"/>
</svg>
