<svg version="1.1" viewBox="0 0 155 200" xmlns="http://www.w3.org/2000/svg">
  <path  style="fill:#ffffff;stroke-width:1;stroke:black"
		d="M 153.44,199.5 H 0.5 v -32.185 q 17.532,-12.691 35.063,-26.952 17.662,-14.261 28.26,-24.597 15.831,-15.307 22.503,-26.69 6.672,-11.383 6.6725,-22.503 0,-13.345 -8.635,-20.541 -8.5041,-7.3266 -24.597,-7.3266 -12.037,0 -25.382,4.9717 -13.214,4.9717 -24.597,12.691 H 5.6009 v -43.306 q 9.2891,-4.0558 27.344,-8.1116 18.186,-4.0558 36.371,-4.0558 36.633,0 55.866,15.438 19.232,15.307 19.232,43.437 0,18.447 -9.2891,35.063 -9.1583,16.616 -28.129,34.278 -11.906,10.99 -23.942,20.279 -12.037,9.1583 -17.139,12.822 h 87.527 z"/>
</svg>
