<svg version="1.1" xmlns="http://www.w3.org/2000/svg" xmlns:xlink="http://www.w3.org/1999/xlink" viewBox="0 0 160 200">   
  <path style="fill:#ffffff;stroke-width:1;stroke:black"
		d="m 158.96776,99.870974 q 0,24.258066 -4.3871,43.483876 -4.38709,19.09675 -13.67742,31.35483 -9.54839,12.51613 -24.51613,18.96775 Q 101.41936,200 79.48388,200 57.935489,200 42.70968,193.54838 27.483874,187.09677 18.064518,174.45163 8.51613,161.80645 4.258065,143.09679 0,124.25805 0,99.999981 0,74.967753 4.3870973,56.516109 8.7741946,38.064504 18.322583,25.290318 27.870971,12.64514 43.096778,6.32257 58.322587,0 79.48388,0 q 22.06452,0 37.03226,6.5806223 14.96775,6.4516157 24.51613,19.3548457 9.41936,12.645179 13.67742,31.22583 4.25807,18.451605 4.25807,42.709676 z m -49.93549,0 q 0,-34.838716 -6.83871,-49.548389 -6.838709,-14.83872 -22.70968,-14.83872 -15.870971,0 -22.70968,14.83872 -6.838709,14.709673 -6.838709,49.806445 0,34.19356 6.967739,49.29033 6.967743,15.09677 22.58065,15.09677 15.612903,0 22.58065,-15.09677 6.96774,-15.09677 6.96774,-49.548386 z" />
</svg>
